<?xml version="1.0" encoding="UTF-8"?>
<!DOCTYPE svg PUBLIC "-//W3C//DTD SVG 1.1//EN" "http://www.w3.org/Graphics/SVG/1.1/DTD/svg11.dtd">
<!-- Creator: CorelDRAW 2019 (64-Bit) -->
<svg xmlns="http://www.w3.org/2000/svg" xml:space="preserve" width="33.8666mm" height="33.8666mm" version="1.1" style="shape-rendering:geometricPrecision; text-rendering:geometricPrecision; image-rendering:optimizeQuality; fill-rule:evenodd; clip-rule:evenodd"
viewBox="0 0 3386.66 3386.66"
 xmlns:xlink="http://www.w3.org/1999/xlink"
 xmlns:xodm="http://www.corel.com/coreldraw/odm/2003">
 <defs>
  <style type="text/css">
   <![CDATA[
    .fil1 {fill:#C822FF}
    .fil0 {fill:url(#id0)}
   ]]>
  </style>
  <linearGradient id="id0" gradientUnits="userSpaceOnUse" x1="1693.33" y1="182.25" x2="1693.33" y2="3204.41">
   <stop offset="0" style="stop-opacity:1; stop-color:#1B6DFF"/>
   <stop offset="0.372549" style="stop-opacity:1; stop-color:#7148FF"/>
   <stop offset="0.54902" style="stop-opacity:1; stop-color:#853FFF"/>
   <stop offset="1" style="stop-opacity:1; stop-color:#C822FF"/>
  </linearGradient>
 </defs>
 <g id="Export">
  <metadata id="CorelCorpID_0Corel-Layer"/>
  <g id="_2693784991552">
   <path class="fil0" d="M2539.04 2353.85l365.14 0 0 -117.46 -365.14 0 0 117.46zm-484.02 0l365.14 0 0 -117.46 -365.14 0 0 117.46zm-6.36 257l0 231.25 249.08 0c99.64,0 181.16,81.52 181.16,181.15l0 181.16 -1576.61 0 0 -181.16c0,-99.63 81.52,-181.15 181.15,-181.15l249.09 0 0 -231.25 -1031.82 0c-99.64,0 -181.15,-81.52 -181.15,-181.16l0 -2066.29c0,-99.63 81.51,-181.15 181.15,-181.15l2785.25 0c99.63,0 181.15,81.52 181.15,181.15l0 2066.29c0,99.64 -81.52,181.16 -181.15,181.16l-1037.3 0zm-118.89 0l-478.35 0 0 231.25 478.35 0 0 -231.25zm-1631.6 -2298.4l2790.33 0c29.74,0 54.07,24.33 54.07,54.07l0 2060.06c0,29.74 -24.33,54.06 -54.07,54.06l-2790.33 0c-29.74,0 -54.07,-24.32 -54.07,-54.06l0 -2060.06c0,-29.74 24.33,-54.07 54.07,-54.07zm728.67 2767.42c442.5,0 885.01,0 1327.51,0 0,-19.63 0,-39.26 0,-58.88 0,-29.9 -24.45,-54.35 -54.34,-54.35 -406.28,0 -812.56,0 -1218.84,0 -29.88,0 -54.34,24.46 -54.34,54.35 0,19.62 0.01,39.25 0.01,58.88zm-542.09 -2418.49l602.98 0 -116.07 -116.07 -486.91 0 0 116.07zm0 1336l0 -1211.46 365.22 0 0 1211.46 -365.22 0zm2419.99 -1211.46l0 1211.46 -1930.23 0 0 -1211.46 1930.23 0zm-2428.82 -359.49l2434.83 0c59.78,0 108.69,48.91 108.69,108.69l0 1581.14 -2652.21 0 0 -1581.14c0,-59.78 48.91,-108.69 108.69,-108.69zm1220.32 1140.52l365.15 0 0 -117.47 -365.15 0 0 117.47zm-484.01 0l365.13 0 0 -117.47 -365.13 0 0 117.47zm724.61 237.77l605.74 0 0 -117.47 -605.74 0 0 117.47zm-724.61 7.08l602.9 0 0 -117.47 -602.9 0 0 117.47zm484.01 -600.08l365.15 0 0 117.47 -365.15 0 0 -117.47zm-484.01 0l365.13 0 0 117.47 -365.13 0 0 -117.47zm724.61 -237.77l605.74 0 0 117.47 -605.74 0 0 -117.47zm-724.61 -7.07l602.9 0 0 117.46 -602.9 0 0 -117.46z"/>
   <g>
    <polygon class="fil1" points="1257.58,661.38 2904.74,661.38 2904.74,545.31 1141.51,545.31 "/>
    <circle class="fil1" cx="667.36" cy="1030.47" r="81.52"/>
    <circle class="fil1" cx="667.36" cy="1391.65" r="81.52"/>
    <circle class="fil1" cx="667.36" cy="1752.83" r="81.52"/>
   </g>
  </g>
 </g>
</svg>
