<?xml version="1.0" encoding="UTF-8"?>
<!DOCTYPE svg PUBLIC "-//W3C//DTD SVG 1.1//EN" "http://www.w3.org/Graphics/SVG/1.1/DTD/svg11.dtd">
<!-- Creator: CorelDRAW 2019 (64-Bit) -->
<svg xmlns="http://www.w3.org/2000/svg" xml:space="preserve" width="29.6332mm" height="25.3998mm" version="1.1" style="shape-rendering:geometricPrecision; text-rendering:geometricPrecision; image-rendering:optimizeQuality; fill-rule:evenodd; clip-rule:evenodd"
viewBox="0 0 2963.32 2539.98"
 xmlns:xlink="http://www.w3.org/1999/xlink"
 xmlns:xodm="http://www.corel.com/coreldraw/odm/2003">
 <defs>
  <style type="text/css">
   <![CDATA[
    .fil0 {fill:url(#id0)}
   ]]>
  </style>
  <linearGradient id="id0" gradientUnits="userSpaceOnUse" x1="1481.66" y1="81.3" x2="1481.66" y2="2458.68">
   <stop offset="0" style="stop-opacity:1; stop-color:#1B6DFF"/>
   <stop offset="0.372549" style="stop-opacity:1; stop-color:#7148FF"/>
   <stop offset="0.54902" style="stop-opacity:1; stop-color:#853FFF"/>
   <stop offset="1" style="stop-opacity:1; stop-color:#C822FF"/>
  </linearGradient>
 </defs>
 <g id="Export">
  <metadata id="CorelCorpID_0Corel-Layer"/>
  <path class="fil0" d="M1479.23 204.54c55.11,-74.42 143.77,-123.24 242.95,-123.24l872.29 0c70.69,0 128.55,57.85 128.55,128.55l0 98.43 58.25 0c88.38,0 160.69,72.32 160.69,160.69l0 1614.97c0,141.42 -115.7,257.11 -257.11,257.11l-882.58 0c-18.84,67.8 -81.2,117.63 -154.8,117.63l-331.43 0c-73.86,0 -136.08,-49.46 -154.67,-117.63l-882.9 0c-141.41,0 -257.11,-115.69 -257.11,-257.11l0 -1614.97c0,-88.38 72.31,-160.69 160.69,-160.69l58.25 0 0 -98.43c0,-70.7 57.85,-128.55 128.55,-128.55l867.43 0c99.12,0 187.83,48.9 242.95,123.24zm74.42 1797.05l1052.86 0c0,-55.55 0,-56.44 0,-112l-911.18 0c-68.65,0 -126.53,47.8 -141.68,112zm-143.83 0l-1053.01 0c0,-58.26 0,-53.74 0,-112l911.32 0c68.22,0 126.09,48.43 141.69,112zm301.58 222.96l254 0 700.43 0c44.18,0 84.36,-18.08 113.49,-47.2 29.12,-29.13 47.2,-69.3 47.2,-113.49l0 -1590.87c0,-26.51 -21.69,-48.21 -48.21,-48.21l-55.29 0 0 1554.71c0,70.71 -57.85,128.56 -128.55,128.56l-2225.62 0c-70.71,0 -128.55,-57.85 -128.55,-128.56l0 -1554.71 -55.3 0c-26.51,0 -48.2,21.69 -48.2,48.21l0 1590.87c0,88.38 72.31,160.69 160.69,160.69l954.93 0 0 53.48c0,35.35 28.92,64.28 64.28,64.28l330.43 0c35.35,0 64.27,-28.92 64.27,-64.28l0 -53.48zm-291.76 -393.08l0 -1448.3c0,-99.74 -81.61,-181.35 -181.35,-181.35l-881.48 0c0,541.67 0,1032.62 0,1574.28l941.72 0c48.34,0 91.59,21.31 121.11,55.37zm119.18 5.91c29.49,-37.35 74.94,-61.16 125.97,-61.28l941.72 -2c0,-544.37 0,-1027.91 0,-1572.28l-886.35 0c-99.74,0 -181.34,81.61 -181.34,181.35l0 1454.21zm-958.61 -1299.98l620.68 0 0 112.49 -620.68 0 0 -112.49zm0 226.98l620.68 0 0 112.48 -620.68 0 0 -112.48zm0 224.97l341.48 0 0 112.49 -341.48 0 0 -112.49zm449.94 0l170.74 0 0 112.49 -170.74 0 0 -112.49zm-393.7 225.22l508.2 0c35.35,0 64.27,28.92 64.27,64.28l0 94.16c0,35.36 -28.92,64.28 -64.27,64.28l-508.2 0c-35.35,0 -64.27,-28.92 -64.27,-64.28l0 -94.16c0,-35.36 28.92,-64.28 64.27,-64.28zm1746.66 -677.17l-620.68 0 0 112.49 620.68 0 0 -112.49zm-621.81 451.95l341.48 0 0 112.49 -341.48 0 0 -112.49zm449.95 0l170.73 0 0 112.49 -170.73 0 0 -112.49zm171.86 -224.97l-620.68 0 0 112.48 620.68 0 0 -112.48zm-56.24 450.19l-508.2 0c-35.35,0 -64.27,28.92 -64.27,64.28l0 94.16c0,35.36 28.92,64.28 64.27,64.28l508.2 0c35.35,0 64.27,-28.92 64.27,-64.28l0 -94.16c0,-35.36 -28.92,-64.28 -64.27,-64.28z"/>
 </g>
</svg>
