<?xml version="1.0" encoding="UTF-8"?>
<!DOCTYPE svg PUBLIC "-//W3C//DTD SVG 1.1//EN" "http://www.w3.org/Graphics/SVG/1.1/DTD/svg11.dtd">
<!-- Creator: CorelDRAW 2019 (64-Bit) -->
<svg xmlns="http://www.w3.org/2000/svg" xml:space="preserve" width="29.6332mm" height="25.3998mm" version="1.1" style="shape-rendering:geometricPrecision; text-rendering:geometricPrecision; image-rendering:optimizeQuality; fill-rule:evenodd; clip-rule:evenodd"
viewBox="0 0 2963.32 2539.98"
 xmlns:xlink="http://www.w3.org/1999/xlink"
 xmlns:xodm="http://www.corel.com/coreldraw/odm/2003">
 <defs>
  <style type="text/css">
   <![CDATA[
    .fil0 {fill:url(#id0)}
   ]]>
  </style>
  <linearGradient id="id0" gradientUnits="userSpaceOnUse" x1="1481.66" y1="0" x2="1481.66" y2="2539.99">
   <stop offset="0" style="stop-opacity:1; stop-color:#1B6DFF"/>
   <stop offset="0.372549" style="stop-opacity:1; stop-color:#7148FF"/>
   <stop offset="0.54902" style="stop-opacity:1; stop-color:#853FFF"/>
   <stop offset="1" style="stop-opacity:1; stop-color:#C822FF"/>
  </linearGradient>
 </defs>
 <g id="Export">
  <metadata id="CorelCorpID_0Corel-Layer"/>
  <path class="fil0" d="M529.1 2004.26l-264.79 0c-87.13,0 -158.43,-71.3 -158.43,-158.44l0 -1687.38c0,-87.15 71.29,-158.44 158.43,-158.44l2224.11 0c87.14,0 158.44,71.29 158.44,158.44l0 1687.38c0,87.14 -71.3,158.44 -158.44,158.44l-1165.15 0c-69.1,377.66 -333.83,555.65 -794.17,533.95l0 -112.47c119.22,0 215.87,-94.35 215.87,-210.74 0,-116.39 -96.65,-210.74 -215.87,-210.74zm264.58 405.07c41.61,-54.03 66.5,-121.52 66.5,-194.33 0,-80.23 -30.48,-154.24 -80.05,-210.74 -60.72,-69.22 -150.36,-112.48 -251.03,-112.48l-263.29 0c-26.13,0 -47.52,-21.38 -47.52,-47.53l0 -1691.27c0,-26.14 21.38,-47.53 47.52,-47.53l2223.1 0c26.14,0 47.53,21.39 47.53,47.53l0 1691.27c0,26.14 -21.39,47.53 -47.53,47.53l-1270.6 0c-22.04,291.59 -163.08,464.01 -424.63,517.55zm1905.82 -302.04c26.13,0 47.52,-21.39 47.52,-47.53l0 -1639.66 110.42 0 0 1641.22c0,87.14 -71.31,158.44 -158.44,158.44l-1220.57 0 0 -112.47 1221.07 0zm-2031.41 -1752.63l5.95 0c26.14,0 47.52,21.39 47.52,47.53l0 51.51c0,26.14 -21.38,47.52 -47.52,47.52l-5.95 0c-26.15,0 -47.53,-21.38 -47.53,-47.52l0 -51.51c0,-26.14 21.38,-47.53 47.53,-47.53zm151.51 0l5.95 0c26.14,0 47.52,21.39 47.52,47.53l0 51.51c0,26.14 -21.38,47.52 -47.52,47.52l-5.95 0c-26.15,0 -47.53,-21.38 -47.53,-47.52l0 -51.51c0,-26.14 21.38,-47.53 47.53,-47.53zm1098.18 1132.85l5.95 0c26.14,0 47.52,21.38 47.52,47.52l0 51.51c0,26.14 -21.38,47.52 -47.52,47.52l-5.95 0c-26.15,0 -47.53,-21.38 -47.53,-47.52l0 -51.51c0,-26.14 21.38,-47.52 47.53,-47.52zm151.51 0l5.95 0c26.14,0 47.52,21.38 47.52,47.52l0 51.51c0,26.14 -21.38,47.52 -47.52,47.52l-5.95 0c-26.15,0 -47.53,-21.38 -47.53,-47.52l0 -51.51c0,-26.14 21.38,-47.52 47.53,-47.52zm-1436.82 -886.25l406 0 0 110.9 -406 0 0 -110.9zm504.03 0l203 0 0 110.9 -203 0 0 -110.9zm269.84 0l701.59 0 0 110.9 -701.59 0 0 -110.9zm-773.87 221.81l707.03 0 0 110.9 -707.03 0 0 -110.9zm773.87 1.98l231.72 0 0 110.91 -231.72 0 0 -110.91zm299.55 0l402.04 0 0 110.91 -402.04 0 0 -110.91zm402.04 219.84l-406 0 0 110.9 406 0 0 -110.9zm-504.03 0l-203 0 0 110.9 203 0 0 -110.9zm-269.84 0l-701.59 0 0 110.9 701.59 0 0 -110.9zm773.87 221.81l-707.03 0 0 110.91 707.03 0 0 -110.91zm-773.87 1.98l-231.72 0 0 110.91 231.72 0 0 -110.91zm-299.55 0l-402.04 0 0 110.91 402.04 0 0 -110.91z"/>
 </g>
</svg>
