<?xml version="1.0" encoding="UTF-8"?>
<!DOCTYPE svg PUBLIC "-//W3C//DTD SVG 1.1//EN" "http://www.w3.org/Graphics/SVG/1.1/DTD/svg11.dtd">
<!-- Creator: CorelDRAW 2019 (64-Bit) -->
<svg xmlns="http://www.w3.org/2000/svg" xml:space="preserve" width="29.6332mm" height="29.6332mm" version="1.1" style="shape-rendering:geometricPrecision; text-rendering:geometricPrecision; image-rendering:optimizeQuality; fill-rule:evenodd; clip-rule:evenodd"
viewBox="0 0 2963.32 2963.32"
 xmlns:xlink="http://www.w3.org/1999/xlink"
 xmlns:xodm="http://www.corel.com/coreldraw/odm/2003">
 <defs>
  <style type="text/css">
   <![CDATA[
    .fil0 {fill:url(#id0);fill-rule:nonzero}
   ]]>
  </style>
  <linearGradient id="id0" gradientUnits="userSpaceOnUse" x1="1605.53" y1="0.01" x2="1605.53" y2="2963.33">
   <stop offset="0" style="stop-opacity:1; stop-color:#1B6DFF"/>
   <stop offset="0.372549" style="stop-opacity:1; stop-color:#7148FF"/>
   <stop offset="0.54902" style="stop-opacity:1; stop-color:#853FFF"/>
   <stop offset="1" style="stop-opacity:1; stop-color:#C822FF"/>
  </linearGradient>
 </defs>
 <g id="Export">
  <metadata id="CorelCorpID_0Corel-Layer"/>
  <path class="fil0" d="M2725.11 2020.02l0 640.78c-215.17,115.94 -398.6,196.12 -549.47,238.21 -150.86,42.88 -314.44,64.32 -489.12,64.32 -243.76,0 -469.27,-36.52 -676.51,-109.58 -162.77,-55.57 -290.62,-126.25 -384.31,-212 -93.7,-84.97 -180.25,-211.22 -259.64,-377.97 -78.61,-166.74 -118.32,-353.33 -118.32,-559.79l0 -344.59c0,-318.42 96.88,-601.89 290.61,-852.01 260.44,-338.25 614.58,-507.38 1063.2,-507.38 130.23,0 253.31,12.7 370.82,38.9 116.72,26.2 227.89,65.91 333.49,118.32 63.53,-57.17 125.47,-85.76 185.02,-85.76 69.87,0 126.25,23.82 169.13,72.25 43.66,47.64 65.1,129.44 65.1,243.78l0 308.87c0,114.34 -22.23,196.14 -65.91,245.35 -44.45,48.45 -101.62,73.06 -170.7,73.06 -56.39,0 -104.03,-16.67 -144.52,-50.81 -30.97,-23.82 -57.17,-74.65 -77.82,-154.84 -20.64,-79.41 -44.46,-133.39 -70.66,-161.19 -42.09,-44.47 -115.93,-84.16 -222.34,-119.11 -105.6,-34.94 -224.7,-52.4 -356.51,-52.4 -188.99,0 -353.35,38.9 -493.09,116.72 -98.47,57.17 -190.57,157.22 -273.94,300.14 -83.37,142.93 -125.46,298.55 -125.46,466.11l0 344.59c0,256.48 73.84,451.02 222.32,583.61 147.69,132.61 382.73,199.31 705.1,199.31 218.36,0 417.67,-41.28 597.11,-124.65l0 -342.24 -485.94 0c-118.32,0 -201.69,-22.22 -250.91,-65.91 -48.45,-43.66 -73.06,-100.83 -73.06,-172.3 0,-71.46 24.61,-128.63 73.06,-172.29 49.22,-43.69 132.59,-65.92 250.91,-65.92l962.36 0c61.15,0 115.94,21.44 165.15,64.32 48.45,42.88 73.06,100.05 73.06,171.51 0,71.46 -24.61,129.42 -73.06,173.89 -49.21,44.48 -104,66.7 -165.15,66.7z"/>
 </g>
</svg>
