<?xml version="1.0" encoding="UTF-8"?>
<!DOCTYPE svg PUBLIC "-//W3C//DTD SVG 1.1//EN" "http://www.w3.org/Graphics/SVG/1.1/DTD/svg11.dtd">
<!-- Creator: CorelDRAW 2019 (64-Bit) -->
<svg xmlns="http://www.w3.org/2000/svg" xml:space="preserve" width="29.6332mm" height="29.6332mm" version="1.1" style="shape-rendering:geometricPrecision; text-rendering:geometricPrecision; image-rendering:optimizeQuality; fill-rule:evenodd; clip-rule:evenodd"
viewBox="0 0 2963.32 2963.32"
 xmlns:xlink="http://www.w3.org/1999/xlink"
 xmlns:xodm="http://www.corel.com/coreldraw/odm/2003">
 <defs>
  <style type="text/css">
   <![CDATA[
    .fil0 {fill:url(#id0);fill-rule:nonzero}
   ]]>
  </style>
  <linearGradient id="id0" gradientUnits="userSpaceOnUse" x1="1664.34" y1="-0.01" x2="1664.34" y2="2963.33">
   <stop offset="0" style="stop-opacity:1; stop-color:#1B6DFF"/>
   <stop offset="0.372549" style="stop-opacity:1; stop-color:#7148FF"/>
   <stop offset="0.54902" style="stop-opacity:1; stop-color:#853FFF"/>
   <stop offset="1" style="stop-opacity:1; stop-color:#C822FF"/>
  </linearGradient>
 </defs>
 <g id="Export">
  <metadata id="CorelCorpID_0Corel-Layer"/>
  <path class="fil0" d="M1286.41 1947.19l0 515.58 505.58 0c124.31,0 211.91,23.35 263.62,69.25 50.91,45.88 76.76,105.95 76.76,181.03 0,75.09 -25.85,135.15 -76.76,181.03 -51.71,45.9 -139.31,69.25 -263.62,69.25l-1086.24 0c-124.31,0 -211.91,-23.35 -263.63,-70.08 -50.9,-46.72 -76.76,-107.62 -76.76,-182.7 0,-75.09 25.86,-135.15 76.76,-180.21 51.72,-45.05 139.32,-67.57 263.63,-67.57l80.09 0 0 -1962.22 -80.09 0c-124.31,0 -211.91,-23.35 -263.63,-69.25 -50.9,-45.88 -76.76,-105.95 -76.76,-181.03 0,-75.09 25.86,-135.15 76.76,-181.03 51.72,-45.9 139.32,-69.25 263.63,-69.25l1154.64 0c338.73,0 607.36,92.6 805.92,277.81 197.72,185.21 297.01,410.46 297.01,675.76 0,146.84 -33.37,286.15 -100.12,416.3 -50.88,97.61 -135.15,194.39 -252.78,289.5 -118.47,95.94 -238.6,167.69 -362.09,215.24 -122.64,48.39 -285.32,72.59 -487.21,72.59l-474.71 0zm0 -500.57l464.7 0c218.58,0 391.27,-49.23 519.75,-148.49 127.64,-98.46 191.89,-217.75 191.89,-356.25 0,-117.64 -51.73,-221.08 -155.18,-308.68 -103.44,-88.43 -251.96,-132.65 -443.83,-132.65l-577.33 0 0 946.07z"/>
 </g>
</svg>
